<?xml version="1.0"?>
<svg xmlns="http://www.w3.org/2000/svg" viewBox="0 0 860 186.01" width="860" height="186.01" x="0" y="0"><defs><style>.cls-1,.cls-2{fill:#fff;}.cls-1{opacity:0.5;}.cls-3{fill:#00aeef;}</style></defs><title>waveAsset 111</title><g id="Layer_2" data-name="Layer 2"><g id="Layer_1-2" data-name="Layer 1"><path class="cls-1" d="M430,111a37.51,37.51,0,1,0,37.5,37.5A37.5,37.5,0,0,0,430,111Zm0,62.84a25.34,25.34,0,1,1,25.34-25.34A25.34,25.34,0,0,1,430,173.84Z"/><path class="cls-2" d="M430,123.16a25.34,25.34,0,1,0,25.34,25.34A25.35,25.35,0,0,0,430,123.16Zm13.69,23L431.2,158.64a1.69,1.69,0,0,1-2.4,0l-12.49-12.49a1.69,1.69,0,0,1,0-2.4,1.74,1.74,0,0,1,2.4,0L430,155.05l11.29-11.3a1.74,1.74,0,0,1,2.4,0,1.69,1.69,0,0,1,0,2.4Z"/><path class="cls-3" d="M588.06,149c-43,0-83.9-17.24-115.28-46.68a64,64,0,0,0-87.56,0C353.84,131.76,313,149,269.94,149H0V0H860V149Z"/></g></g></svg>
